<mxfile host="65bd71144e">
    <diagram id="QnDHqKquDm8xJS8GhUUa" name="ページ1">
        <mxGraphModel dx="602" dy="563" grid="1" gridSize="10" guides="1" tooltips="1" connect="1" arrows="1" fold="1" page="1" pageScale="1" pageWidth="827" pageHeight="1169" math="0" shadow="0">
            <root>
                <mxCell id="0"/>
                <mxCell id="1" parent="0"/>
                <mxCell id="3" value="学生" style="shape=umlActor;verticalLabelPosition=bottom;verticalAlign=top;html=1;outlineConnect=0;" vertex="1" parent="1">
                    <mxGeometry x="230" y="310" width="50" height="90" as="geometry"/>
                </mxCell>
                <mxCell id="4" value="メニュー画面" style="shape=umlBoundary;whiteSpace=wrap;html=1;" vertex="1" parent="1">
                    <mxGeometry x="440" y="210" width="100" height="80" as="geometry"/>
                </mxCell>
                <mxCell id="5" value="" style="endArrow=classic;html=1;rounded=0;entryX=-0.032;entryY=0.54;entryDx=0;entryDy=0;entryPerimeter=0;exitX=1;exitY=0.3333333333333333;exitDx=0;exitDy=0;exitPerimeter=0;" edge="1" parent="1" source="3" target="4">
                    <mxGeometry width="50" height="50" relative="1" as="geometry">
                        <mxPoint x="340" y="370" as="sourcePoint"/>
                        <mxPoint x="390" y="320" as="targetPoint"/>
                    </mxGeometry>
                </mxCell>
                <mxCell id="6" value="メニュー画面をクリックする" style="rounded=0;whiteSpace=wrap;html=1;fillColor=none;strokeColor=none;" vertex="1" parent="1">
                    <mxGeometry x="280" y="210" width="120" height="60" as="geometry"/>
                </mxCell>
                <mxCell id="7" value="表示(する)" style="ellipse;shape=umlControl;whiteSpace=wrap;html=1;" vertex="1" parent="1">
                    <mxGeometry x="680" y="230" width="70" height="80" as="geometry"/>
                </mxCell>
                <mxCell id="8" value="" style="endArrow=classic;html=1;rounded=0;entryX=0;entryY=0.5;entryDx=0;entryDy=0;entryPerimeter=0;exitX=1.028;exitY=0.41;exitDx=0;exitDy=0;exitPerimeter=0;" edge="1" parent="1" source="4" target="7">
                    <mxGeometry width="50" height="50" relative="1" as="geometry">
                        <mxPoint x="400" y="527" as="sourcePoint"/>
                        <mxPoint x="557" y="440" as="targetPoint"/>
                    </mxGeometry>
                </mxCell>
                <mxCell id="9" value="学生登録画面" style="shape=umlBoundary;whiteSpace=wrap;html=1;" vertex="1" parent="1">
                    <mxGeometry x="450" y="370" width="100" height="80" as="geometry"/>
                </mxCell>
                <mxCell id="10" value="" style="endArrow=classic;html=1;rounded=0;entryX=0.88;entryY=0.12;entryDx=0;entryDy=0;entryPerimeter=0;exitX=0.143;exitY=0.875;exitDx=0;exitDy=0;exitPerimeter=0;" edge="1" parent="1" source="7" target="9">
                    <mxGeometry width="50" height="50" relative="1" as="geometry">
                        <mxPoint x="640" y="410" as="sourcePoint"/>
                        <mxPoint x="777" y="437" as="targetPoint"/>
                    </mxGeometry>
                </mxCell>
                <mxCell id="11" value="" style="endArrow=classic;html=1;rounded=0;entryX=-0.032;entryY=0.38;entryDx=0;entryDy=0;entryPerimeter=0;" edge="1" parent="1" source="3" target="9">
                    <mxGeometry width="50" height="50" relative="1" as="geometry">
                        <mxPoint x="482" y="600" as="sourcePoint"/>
                        <mxPoint x="330" y="680" as="targetPoint"/>
                    </mxGeometry>
                </mxCell>
                <mxCell id="12" value="学生情報を入力する" style="rounded=0;whiteSpace=wrap;html=1;fillColor=none;strokeColor=none;" vertex="1" parent="1">
                    <mxGeometry x="300" y="380" width="120" height="60" as="geometry"/>
                </mxCell>
                <mxCell id="13" value="学生情報登録" style="ellipse;shape=umlControl;whiteSpace=wrap;html=1;" vertex="1" parent="1">
                    <mxGeometry x="640" y="440" width="80" height="90" as="geometry"/>
                </mxCell>
                <mxCell id="14" value="" style="endArrow=classic;html=1;rounded=0;entryX=0.045;entryY=0.342;entryDx=0;entryDy=0;entryPerimeter=0;exitX=1;exitY=0.68;exitDx=0;exitDy=0;exitPerimeter=0;" edge="1" parent="1" source="9" target="13">
                    <mxGeometry width="50" height="50" relative="1" as="geometry">
                        <mxPoint x="270" y="580" as="sourcePoint"/>
                        <mxPoint x="407" y="607" as="targetPoint"/>
                    </mxGeometry>
                </mxCell>
                <mxCell id="15" value="学生オブジェクト" style="ellipse;shape=umlEntity;whiteSpace=wrap;html=1;" vertex="1" parent="1">
                    <mxGeometry x="850" y="360" width="80" height="80" as="geometry"/>
                </mxCell>
                <mxCell id="16" value="" style="endArrow=block;startArrow=block;endFill=1;startFill=1;html=1;rounded=0;entryX=-0.02;entryY=0.635;entryDx=0;entryDy=0;entryPerimeter=0;strokeColor=#FF3333;" edge="1" parent="1" source="13" target="15">
                    <mxGeometry width="160" relative="1" as="geometry">
                        <mxPoint x="780" y="540" as="sourcePoint"/>
                        <mxPoint x="940" y="540" as="targetPoint"/>
                    </mxGeometry>
                </mxCell>
                <mxCell id="17" value="登録の成功、失敗(すでに登録してあるかも)" style="rounded=0;whiteSpace=wrap;html=1;fillColor=none;strokeColor=none;" vertex="1" parent="1">
                    <mxGeometry x="750" y="450" width="120" height="60" as="geometry"/>
                </mxCell>
            </root>
        </mxGraphModel>
    </diagram>
    <diagram name="ページ1" id="7AXTRj4txg14pj_YzV8n">
        <mxGraphModel dx="1034" dy="570" grid="1" gridSize="10" guides="1" tooltips="1" connect="1" arrows="1" fold="1" page="1" pageScale="1" pageWidth="827" pageHeight="1169" math="0" shadow="0">
            <root>
                <mxCell id="0"/>
                <mxCell id="1" parent="0"/>
                <mxCell id="8dJaFdYAjDUSkmwdNP9B-1" value="学生" style="shape=umlActor;verticalLabelPosition=bottom;verticalAlign=top;html=1;outlineConnect=0;" vertex="1" parent="1">
                    <mxGeometry x="230" y="310" width="50" height="90" as="geometry"/>
                </mxCell>
                <mxCell id="8dJaFdYAjDUSkmwdNP9B-4" value="メニュー画面" style="shape=umlBoundary;whiteSpace=wrap;html=1;" vertex="1" parent="1">
                    <mxGeometry x="440" y="210" width="100" height="80" as="geometry"/>
                </mxCell>
                <mxCell id="8dJaFdYAjDUSkmwdNP9B-5" value="" style="endArrow=classic;html=1;rounded=0;entryX=-0.032;entryY=0.54;entryDx=0;entryDy=0;entryPerimeter=0;exitX=1;exitY=0.3333333333333333;exitDx=0;exitDy=0;exitPerimeter=0;" edge="1" parent="1" source="8dJaFdYAjDUSkmwdNP9B-1" target="8dJaFdYAjDUSkmwdNP9B-4">
                    <mxGeometry width="50" height="50" relative="1" as="geometry">
                        <mxPoint x="340" y="370" as="sourcePoint"/>
                        <mxPoint x="390" y="320" as="targetPoint"/>
                    </mxGeometry>
                </mxCell>
                <mxCell id="8dJaFdYAjDUSkmwdNP9B-6" value="メニュー画面をクリックする" style="rounded=0;whiteSpace=wrap;html=1;fillColor=none;strokeColor=none;" vertex="1" parent="1">
                    <mxGeometry x="280" y="210" width="120" height="60" as="geometry"/>
                </mxCell>
                <mxCell id="8dJaFdYAjDUSkmwdNP9B-7" value="表示(する)" style="ellipse;shape=umlControl;whiteSpace=wrap;html=1;" vertex="1" parent="1">
                    <mxGeometry x="680" y="230" width="70" height="80" as="geometry"/>
                </mxCell>
                <mxCell id="8dJaFdYAjDUSkmwdNP9B-8" value="" style="endArrow=classic;html=1;rounded=0;entryX=0;entryY=0.5;entryDx=0;entryDy=0;entryPerimeter=0;exitX=1.028;exitY=0.41;exitDx=0;exitDy=0;exitPerimeter=0;" edge="1" parent="1" source="8dJaFdYAjDUSkmwdNP9B-4" target="8dJaFdYAjDUSkmwdNP9B-7">
                    <mxGeometry width="50" height="50" relative="1" as="geometry">
                        <mxPoint x="400" y="527" as="sourcePoint"/>
                        <mxPoint x="557" y="440" as="targetPoint"/>
                    </mxGeometry>
                </mxCell>
                <mxCell id="8dJaFdYAjDUSkmwdNP9B-9" value="学生登録画面" style="shape=umlBoundary;whiteSpace=wrap;html=1;" vertex="1" parent="1">
                    <mxGeometry x="450" y="370" width="100" height="80" as="geometry"/>
                </mxCell>
                <mxCell id="8dJaFdYAjDUSkmwdNP9B-10" value="" style="endArrow=classic;html=1;rounded=0;entryX=0.88;entryY=0.12;entryDx=0;entryDy=0;entryPerimeter=0;exitX=0.143;exitY=0.875;exitDx=0;exitDy=0;exitPerimeter=0;" edge="1" parent="1" source="8dJaFdYAjDUSkmwdNP9B-7" target="8dJaFdYAjDUSkmwdNP9B-9">
                    <mxGeometry width="50" height="50" relative="1" as="geometry">
                        <mxPoint x="640" y="410" as="sourcePoint"/>
                        <mxPoint x="777" y="437" as="targetPoint"/>
                    </mxGeometry>
                </mxCell>
                <mxCell id="8dJaFdYAjDUSkmwdNP9B-11" value="" style="endArrow=classic;html=1;rounded=0;entryX=-0.032;entryY=0.38;entryDx=0;entryDy=0;entryPerimeter=0;" edge="1" parent="1" source="8dJaFdYAjDUSkmwdNP9B-1" target="8dJaFdYAjDUSkmwdNP9B-9">
                    <mxGeometry width="50" height="50" relative="1" as="geometry">
                        <mxPoint x="482" y="600" as="sourcePoint"/>
                        <mxPoint x="330" y="680" as="targetPoint"/>
                    </mxGeometry>
                </mxCell>
                <mxCell id="8dJaFdYAjDUSkmwdNP9B-12" value="学生情報を入力する" style="rounded=0;whiteSpace=wrap;html=1;fillColor=none;strokeColor=none;" vertex="1" parent="1">
                    <mxGeometry x="300" y="380" width="120" height="60" as="geometry"/>
                </mxCell>
                <mxCell id="8dJaFdYAjDUSkmwdNP9B-13" value="学生情報登録" style="ellipse;shape=umlControl;whiteSpace=wrap;html=1;" vertex="1" parent="1">
                    <mxGeometry x="640" y="440" width="80" height="90" as="geometry"/>
                </mxCell>
                <mxCell id="8dJaFdYAjDUSkmwdNP9B-14" value="" style="endArrow=classic;html=1;rounded=0;entryX=0.045;entryY=0.342;entryDx=0;entryDy=0;entryPerimeter=0;exitX=1;exitY=0.68;exitDx=0;exitDy=0;exitPerimeter=0;" edge="1" parent="1" source="8dJaFdYAjDUSkmwdNP9B-9" target="8dJaFdYAjDUSkmwdNP9B-13">
                    <mxGeometry width="50" height="50" relative="1" as="geometry">
                        <mxPoint x="270" y="580" as="sourcePoint"/>
                        <mxPoint x="407" y="607" as="targetPoint"/>
                    </mxGeometry>
                </mxCell>
                <mxCell id="8dJaFdYAjDUSkmwdNP9B-15" value="学生オブジェクト" style="ellipse;shape=umlEntity;whiteSpace=wrap;html=1;" vertex="1" parent="1">
                    <mxGeometry x="850" y="360" width="80" height="80" as="geometry"/>
                </mxCell>
                <mxCell id="8dJaFdYAjDUSkmwdNP9B-17" value="" style="endArrow=block;startArrow=block;endFill=1;startFill=1;html=1;rounded=0;entryX=-0.02;entryY=0.635;entryDx=0;entryDy=0;entryPerimeter=0;strokeColor=#FF3333;" edge="1" parent="1" source="8dJaFdYAjDUSkmwdNP9B-13" target="8dJaFdYAjDUSkmwdNP9B-15">
                    <mxGeometry width="160" relative="1" as="geometry">
                        <mxPoint x="780" y="540" as="sourcePoint"/>
                        <mxPoint x="940" y="540" as="targetPoint"/>
                    </mxGeometry>
                </mxCell>
                <mxCell id="8dJaFdYAjDUSkmwdNP9B-18" value="登録の成功、失敗(すでに登録してあるかも)" style="rounded=0;whiteSpace=wrap;html=1;fillColor=none;strokeColor=none;" vertex="1" parent="1">
                    <mxGeometry x="750" y="450" width="120" height="60" as="geometry"/>
                </mxCell>
            </root>
        </mxGraphModel>
    </diagram>
</mxfile>